<svg width="64" height="64" viewBox="0 0 64 64" xmlns="http://www.w3.org/2000/svg"><title>icon-hiw-build-your-doc</title><g fill="none" fill-rule="evenodd"><circle fill="#FFF" cx="32" cy="32" r="32"/><g transform="translate(11 12)"><path d="M2.52 2.093v33.198h25.3V2.093H2.52zM1.564.27H28.42a1.19 1.19 0 0 1 1.183 1.195v34.821c0 .66-.53 1.194-1.183 1.194H1.564a1.189 1.189 0 0 1-1.183-1.194V1.464c0-.66.53-1.195 1.183-1.195z" fill="#ffaf82" fill-rule="nonzero"/><g fill-rule="nonzero"><path d="M24.77 8.178H5.96c-.898 0-.898-1.459 0-1.459h18.81c.898 0 .898 1.46 0 1.46z" fill="#ff5d00"/><path d="M11.416 8.178H8.318c-.898 0-.898-1.459 0-1.459h3.098c.898 0 .898 1.46 0 1.46z" fill="#ffaf82"/><path d="M24.769 19.487H5.96c-.898 0-.898-1.46 0-1.46h18.808c.898 0 .898 1.46 0 1.46zm.001-3.647H5.96c-.898 0-.898-1.46 0-1.46h18.81c.898 0 .898 1.46 0 1.46zm0-4.014H5.96c-.898 0-.898-1.459 0-1.459h18.81c.898 0 .898 1.46 0 1.46zM20.947 23.5H6.194c-1.209 0-1.209-1.46 0-1.46h14.753c1.21 0 1.21 1.46 0 1.46z" fill="#ff5d00"/><path d="M21.517 11.826H18.42c-.898 0-.898-1.459 0-1.459h3.098c.898 0 .898 1.46 0 1.46zM14.11 15.84h-3.099c-.897 0-.897-1.46 0-1.46h3.099c.898 0 .898 1.46 0 1.46zm10.673 3.647h-3.267c-.898 0-.898-1.46 0-1.46h3.267c.897 0 .897 1.46 0 1.46zM18.612 23.5h-4.57c-.898 0-.898-1.46 0-1.46h4.57c.898 0 .898 1.46 0 1.46z" fill="#ffaf82"/></g><path d="M28.303 41.714c-6.782 0-12.28-5.532-12.28-12.357 0-6.824 5.498-12.356 12.28-12.356 6.781 0 12.279 5.532 12.279 12.356 0 6.825-5.498 12.357-12.28 12.357z" fill="#FFF" fill-rule="nonzero"/><ellipse fill="#ff5d00" cx="28.515" cy="29.318" rx="11.476" ry="11.549"/><path d="M26.93 31.983l-3.07-3.114a.87.87 0 0 0-1.24 0 .895.895 0 0 0 0 1.257l3.763 3.815c.164.168.387.26.62.26l.048-.001a.874.874 0 0 0 .636-.332l6.464-8.195a.894.894 0 0 0-.138-1.247.87.87 0 0 0-1.23.136l-5.853 7.42z" stroke="#FFF" fill="#FFF"/></g></g></svg>