<svg width="64" height="64" viewBox="0 0 64 64" xmlns="http://www.w3.org/2000/svg"><title>icon-hiw-save-print-share</title><g fill="none" fill-rule="evenodd"><circle fill="#FFF" cx="32" cy="32" r="32"/><path d="M44.304 44.936a9.958 9.958 0 0 1-1.93-.208l3.772-4.116c2.425-.779 4.193-3.017 4.193-5.69 0-3.317-2.703-6.006-6.037-6.006-.308 0-.603.046-.9.09a9.881 9.881 0 0 0 .905-4.114c0-5.531-4.506-10.015-10.065-10.015a10.068 10.068 0 0 0-8.84 5.226 4.027 4.027 0 0 0-1.233-.211 4.017 4.017 0 0 0-4.023 4.01c0 1.225.562 2.306 1.427 3.043-.143-.01-.28-.044-.425-.044-3.887 0-7.039 3.14-7.039 7.014 0 2.93 1.805 5.435 4.365 6.484l3.745 4.472c-.355.034-.709.067-1.071.067-6.108 0-11.06-4.935-11.06-11.023 0-4.286 2.461-7.99 6.048-9.81-.002-.067-.01-.133-.01-.2 0-4.185 3.214-7.616 7.314-7.985a14.047 14.047 0 0 1 10.805-5.052c7.782 0 14.09 6.278 14.09 14.021 0 .287-.02.568-.037.85 3.569 1.538 6.067 5.07 6.067 9.187 0 5.528-4.504 10.01-10.061 10.01zm-20.507-3.514c0 .002 0 .003-.002.004l-.002.001.004-.005z" fill="#ffaf82" fill-rule="nonzero"/><path d="M30.419 46.145V35.16c0-1.044.85-1.891 1.9-1.891 1.049 0 1.9.846 1.9 1.89v10.97l2.114-2.103a1.907 1.907 0 0 1 2.687 0 1.885 1.885 0 0 1 0 2.674l-5.362 5.335a1.907 1.907 0 0 1-2.687 0l-5.375-5.347a1.884 1.884 0 0 1-.001-2.672 1.908 1.908 0 0 1 2.684.001l2.14 2.13z" fill="#ff5d00"/></g></svg>