<svg width="64" height="64" viewBox="0 0 64 64" xmlns="http://www.w3.org/2000/svg" xmlns:xlink="http://www.w3.org/1999/xlink"><title>icon-hiw-sign-it</title><defs><path id="a" d="M0 .002V11.6h39.751V.002z"/></defs><g fill="none" fill-rule="evenodd"><circle fill="#FFF" cx="32" cy="32" r="32"/><g fill="#ffaf82"><path d="M40.912 13.774c-.497 0-1.046.235-1.492.686L18.733 35.304c-1.191 1.2-2.02 3.113-2.524 4.675 1.48-.478 3.398-1.29 4.642-2.542l20.687-20.843c.767-.774.905-1.85.312-2.448a1.292 1.292 0 0 0-.938-.372M14.303 43.283c-.36 0-.71-.144-.968-.406a1.387 1.387 0 0 1-.381-1.215c.038-.219.966-5.416 3.841-8.314l20.687-20.842c1.854-1.87 4.623-2.009 6.305-.315 1.68 1.695 1.543 4.487-.311 6.357L22.788 39.392c-2.876 2.897-8.032 3.832-8.25 3.87a1.359 1.359 0 0 1-.235.02"/><path d="M36.023 16.584l4.3 4.3-18.096 18.097-4.3-4.3z"/></g><path d="M40.747 24.373l-7.721-7.248a1.385 1.385 0 0 1 0-1.936 1.33 1.33 0 0 1 1.904 0l7.722 7.247 2.083-2.118a1.354 1.354 0 0 1 1.939 0 1.41 1.41 0 0 1 0 1.97L36.828 32.3a1.355 1.355 0 0 1-1.94 0 1.412 1.412 0 0 1 0-1.972l5.859-5.955z" fill="#ff5d00"/><path d="M21.214 38.484l-4.26-3.538c-.579-.512-.579-1.342 0-1.854.578-.512 1.515-.512 2.094 0l4.26 3.537c.579.512.579 1.343 0 1.855a1.58 1.58 0 0 1-1.047.384 1.58 1.58 0 0 1-1.047-.384z" fill="#ffaf82"/><g transform="translate(12.075 41.108)"><mask id="b" fill="#fff"><use xlink:href="#a"/></mask><path d="M23.232 10.51c-.819-.505-1.18-1.673-.86-2.778l1.083-3.726a30.882 30.882 0 0 0-3.657 4.153c-.505.686-1.309.967-2.044.724-.854-.285-1.37-1.166-1.316-2.245.038-.758.066-1.525.084-2.29a63.986 63.986 0 0 1-2.13 2.747c-.532.652-1.35.886-2.08.593-.775-.311-1.247-1.126-1.231-2.085a41.64 41.64 0 0 0-6.29 4.001 1.21 1.21 0 0 1-1.658-.181 1.107 1.107 0 0 1 .188-1.596 43.584 43.584 0 0 1 7.532-4.67 1.71 1.71 0 0 1 1.723.124c.432.294.724.761.841 1.31a64.383 64.383 0 0 0 2.087-2.828c.488-.701 1.255-.999 2.005-.777.852.252 1.399 1.105 1.391 2.172a86.151 86.151 0 0 1-.054 2.427 31.63 31.63 0 0 1 4.198-4.31c.596-.5 1.394-.575 2.032-.187.827.502 1.192 1.67.87 2.78l-1.06 3.647c.284-.29.569-.596.86-.908 1.594-1.705 3.24-3.469 5.513-3.716 1.844-.204 3.536.688 5.089 1.68.543.346.691 1.051.33 1.574-.359.524-1.091.666-1.635.32-1.181-.755-2.424-1.431-3.518-1.317-1.382.152-2.666 1.525-4.024 2.979-.717.767-1.456 1.559-2.262 2.22a1.78 1.78 0 0 1-1.127.414c-.305 0-.607-.083-.88-.25z" fill="#ff5d00" mask="url(#b)"/></g></g></svg>