<svg width="16" height="20" viewBox="0 0 16 20" xmlns="http://www.w3.org/2000/svg"><title>Shape</title><path d="M15.087 9.903a1.167 1.167 0 0 1-.293.698l-.003.004-.224.24-.152.163-7.21 7.725a1.028 1.028 0 0 1-1.524.004l-.38-.408c-.42-.45-.418-1.18.004-1.632l5.373-5.757H1.08C.484 10.94 0 10.424 0 9.788c0-.636.484-1.151 1.08-1.151h9.602L5.305 2.876a1.213 1.213 0 0 1-.004-1.633l.38-.407a1.027 1.027 0 0 1 1.524.005l7.573 8.114.016.017c.19.204.283.468.3.736.001.026.014.051.014.078 0 .04-.017.078-.021.117z" fill="#CCC" fill-rule="evenodd"/></svg>